<svg xmlns="http://www.w3.org/2000/svg" width="23.835" height="25.96" viewBox="0 0 23.835 25.96">
    <path id="calendar" d="M13.3,34.727V16.184a1.862,1.862,0,0,1,.542-1.313,1.7,1.7,0,0,1,1.292-.542h1.833v-1.4a2.3,2.3,0,0,1,.667-1.646,2.189,2.189,0,0,1,1.625-.688h.917a2.312,2.312,0,0,1,2.292,2.334v1.4h5.5v-1.4a2.3,2.3,0,0,1,.667-1.646A2.189,2.189,0,0,1,30.26,10.6h.917a2.312,2.312,0,0,1,2.292,2.334v1.4H35.3a1.85,1.85,0,0,1,1.833,1.854V34.706a1.862,1.862,0,0,1-.542,1.313,1.7,1.7,0,0,1-1.292.542H15.133A1.85,1.85,0,0,1,13.3,34.727Zm1.833,0H35.3V19.892H15.133ZM18.8,17.121a.473.473,0,0,0,.125.333.44.44,0,0,0,.333.125h.917a.473.473,0,0,0,.333-.125.44.44,0,0,0,.125-.333V12.954a.473.473,0,0,0-.125-.333.44.44,0,0,0-.333-.125h-.917a.43.43,0,0,0-.458.458Zm11,0a.473.473,0,0,0,.125.333.44.44,0,0,0,.333.125h.917a.473.473,0,0,0,.333-.125.44.44,0,0,0,.125-.333V12.954a.473.473,0,0,0-.125-.333.44.44,0,0,0-.333-.125H30.26a.43.43,0,0,0-.458.458Z" transform="translate(-13.3 -10.6)" fill="#fe0000"/>
</svg>
