<svg xmlns="http://www.w3.org/2000/svg" width="20.304" height="29.361" viewBox="0 0 20.304 29.361">
<g id="map_tag" transform="translate(0)">
    <path id="Path_1" data-name="Path 1" d="M9.55-1279.889a10.088,10.088,0,0,0-3.744,1.013,10.159,10.159,0,0,0-5.682,9.4,9.967,9.967,0,0,0,.993,4.111,10.179,10.179,0,0,0,.81,1.407c.159.235,2.095,3.35,4.307,6.917s4.028,6.492,4.037,6.492,1.828-2.922,4.037-6.489,4.148-6.685,4.307-6.92a10.18,10.18,0,0,0,.81-1.407,10.133,10.133,0,0,0,.683-6.9,10.15,10.15,0,0,0-4.013-5.8,10.151,10.151,0,0,0-5.882-1.84C9.983-1279.911,9.684-1279.9,9.55-1279.889Zm1.554,4.317a5.091,5.091,0,0,1,2.741,1.407,5.082,5.082,0,0,1,.318,6.881,5.092,5.092,0,0,1-3.289,1.781,7.055,7.055,0,0,1-1.2,0,5.085,5.085,0,0,1-4.316-3.778,5.121,5.121,0,0,1,.595-3.947,5.1,5.1,0,0,1,3.663-2.369A7.228,7.228,0,0,1,11.1-1275.572Z" transform="translate(-0.12 1279.913)" fill="red"/>
</g>
</svg>
